<svg width="389" height="106" viewBox="0 0 389 106" fill="none" xmlns="http://www.w3.org/2000/svg">
<path d="M1.27841 19.5V7.86364H8.57386V9.375H3.03409V12.9205H8.19318V14.4261H3.03409V17.9886H8.64205V19.5H1.27841ZM12.4815 14.3182V19.5H10.7827V10.7727H12.4134V12.1932H12.5213C12.7221 11.7311 13.0365 11.3598 13.4645 11.0795C13.8963 10.7992 14.4399 10.6591 15.0952 10.6591C15.6899 10.6591 16.2107 10.7841 16.6577 11.0341C17.1046 11.2803 17.4512 11.6477 17.6974 12.1364C17.9437 12.625 18.0668 13.2292 18.0668 13.9489V19.5H16.3679V14.1534C16.3679 13.5208 16.2031 13.0265 15.8736 12.6705C15.544 12.3106 15.0914 12.1307 14.5156 12.1307C14.1217 12.1307 13.7713 12.2159 13.4645 12.3864C13.1615 12.5568 12.9209 12.8068 12.7429 13.1364C12.5687 13.4621 12.4815 13.8561 12.4815 14.3182ZM22.8849 19.6932C22.3319 19.6932 21.8319 19.5909 21.3849 19.3864C20.938 19.178 20.5838 18.8769 20.3224 18.483C20.0649 18.089 19.9361 17.6061 19.9361 17.0341C19.9361 16.5417 20.0308 16.1364 20.2202 15.8182C20.4096 15.5 20.6652 15.2481 20.9872 15.0625C21.3092 14.8769 21.669 14.7367 22.0668 14.642C22.4645 14.5473 22.8698 14.4754 23.2827 14.4261C23.8054 14.3655 24.2296 14.3163 24.5554 14.2784C24.8812 14.2367 25.1179 14.1705 25.2656 14.0795C25.4134 13.9886 25.4872 13.8409 25.4872 13.6364V13.5966C25.4872 13.1004 25.3471 12.7159 25.0668 12.4432C24.7902 12.1705 24.3774 12.0341 23.8281 12.0341C23.2562 12.0341 22.8054 12.161 22.4759 12.4148C22.1501 12.6648 21.9247 12.9432 21.7997 13.25L20.2031 12.8864C20.3925 12.3561 20.669 11.928 21.0327 11.6023C21.4001 11.2727 21.8224 11.0341 22.2997 10.8864C22.777 10.7348 23.2789 10.6591 23.8054 10.6591C24.1539 10.6591 24.5232 10.7008 24.9134 10.7841C25.3073 10.8636 25.6747 11.0114 26.0156 11.2273C26.3603 11.4432 26.6425 11.7519 26.8622 12.1534C27.0819 12.5511 27.1918 13.0682 27.1918 13.7045V19.5H25.5327V18.3068H25.4645C25.3546 18.5265 25.1899 18.7424 24.9702 18.9545C24.7505 19.1667 24.4683 19.3428 24.1236 19.483C23.7789 19.6231 23.366 19.6932 22.8849 19.6932ZM23.2543 18.3295C23.724 18.3295 24.1255 18.2367 24.4588 18.0511C24.7959 17.8655 25.0516 17.6231 25.2259 17.3239C25.4039 17.0208 25.4929 16.697 25.4929 16.3523V15.2273C25.4323 15.2879 25.3149 15.3447 25.1406 15.3977C24.9702 15.447 24.7751 15.4905 24.5554 15.5284C24.3357 15.5625 24.1217 15.5947 23.9134 15.625C23.705 15.6515 23.5308 15.6742 23.3906 15.6932C23.0611 15.7348 22.7599 15.8049 22.4872 15.9034C22.2183 16.0019 22.0024 16.1439 21.8395 16.3295C21.6804 16.5114 21.6009 16.7538 21.6009 17.0568C21.6009 17.4773 21.7562 17.7955 22.0668 18.0114C22.3774 18.2235 22.7732 18.3295 23.2543 18.3295ZM29.5909 19.5V7.86364H31.2898V12.1875H31.392C31.4905 12.0057 31.6326 11.7955 31.8182 11.5568C32.0038 11.3182 32.2614 11.1098 32.5909 10.9318C32.9205 10.75 33.3561 10.6591 33.8977 10.6591C34.6023 10.6591 35.2311 10.8371 35.7841 11.1932C36.3371 11.5492 36.7708 12.0625 37.0852 12.733C37.4034 13.4034 37.5625 14.2102 37.5625 15.1534C37.5625 16.0966 37.4053 16.9053 37.0909 17.5795C36.7765 18.25 36.3447 18.767 35.7955 19.1307C35.2462 19.4905 34.6193 19.6705 33.9148 19.6705C33.3845 19.6705 32.9508 19.5814 32.6136 19.4034C32.2803 19.2254 32.0189 19.017 31.8295 18.7784C31.6402 18.5398 31.4943 18.3277 31.392 18.142H31.25V19.5H29.5909ZM31.2557 15.1364C31.2557 15.75 31.3447 16.2879 31.5227 16.75C31.7008 17.2121 31.9583 17.5739 32.2955 17.8352C32.6326 18.0928 33.0455 18.2216 33.5341 18.2216C34.0417 18.2216 34.4659 18.0871 34.8068 17.8182C35.1477 17.5455 35.4053 17.1761 35.5795 16.7102C35.7576 16.2443 35.8466 15.7197 35.8466 15.1364C35.8466 14.5606 35.7595 14.0436 35.5852 13.5852C35.4148 13.1269 35.1572 12.7652 34.8125 12.5C34.4716 12.2348 34.0455 12.1023 33.5341 12.1023C33.0417 12.1023 32.625 12.2292 32.2841 12.483C31.947 12.7367 31.6913 13.0909 31.517 13.5455C31.3428 14 31.2557 14.5303 31.2557 15.1364ZM41.169 7.86364V19.5H39.4702V7.86364H41.169ZM47.2159 19.6761C46.3561 19.6761 45.6155 19.4924 44.9943 19.125C44.3769 18.7538 43.8996 18.233 43.5625 17.5625C43.2292 16.8883 43.0625 16.0985 43.0625 15.1932C43.0625 14.2992 43.2292 13.5114 43.5625 12.8295C43.8996 12.1477 44.3693 11.6155 44.9716 11.233C45.5777 10.8504 46.286 10.6591 47.0966 10.6591C47.589 10.6591 48.0663 10.7405 48.5284 10.9034C48.9905 11.0663 49.4053 11.322 49.7727 11.6705C50.1402 12.0189 50.4299 12.4716 50.642 13.0284C50.8542 13.5814 50.9602 14.2538 50.9602 15.0455V15.6477H44.0227V14.375H49.2955C49.2955 13.928 49.2045 13.5322 49.0227 13.1875C48.8409 12.839 48.5852 12.5644 48.2557 12.3636C47.9299 12.1629 47.5473 12.0625 47.108 12.0625C46.6307 12.0625 46.214 12.1799 45.858 12.4148C45.5057 12.6458 45.233 12.9489 45.0398 13.3239C44.8504 13.6951 44.7557 14.0985 44.7557 14.5341V15.5284C44.7557 16.1117 44.858 16.608 45.0625 17.017C45.2708 17.4261 45.5606 17.7386 45.9318 17.9545C46.303 18.1667 46.7367 18.2727 47.233 18.2727C47.5549 18.2727 47.8485 18.2273 48.1136 18.1364C48.3788 18.0417 48.608 17.9015 48.8011 17.7159C48.9943 17.5303 49.142 17.3011 49.2443 17.0284L50.8523 17.3182C50.7235 17.7917 50.4924 18.2064 50.1591 18.5625C49.8295 18.9148 49.4148 19.1894 48.9148 19.3864C48.4186 19.5795 47.8523 19.6761 47.2159 19.6761ZM66.608 7.86364V19.5H64.9943L59.0795 10.9659H58.9716V19.5H57.2159V7.86364H58.8409L64.7614 16.4091H64.8693V7.86364H66.608ZM69.169 19.5V7.86364H76.3849V9.375H70.9247V12.9205H75.8679V14.4261H70.9247V19.5H69.169ZM88.2088 11.6477H86.4361C86.3679 11.2689 86.241 10.9356 86.0554 10.6477C85.8698 10.3598 85.6425 10.1155 85.3736 9.91477C85.1046 9.71401 84.8035 9.5625 84.4702 9.46023C84.1406 9.35795 83.7902 9.30682 83.419 9.30682C82.7486 9.30682 82.1482 9.47538 81.6179 9.8125C81.0914 10.1496 80.6747 10.6439 80.3679 11.2955C80.0649 11.947 79.9134 12.7424 79.9134 13.6818C79.9134 14.6288 80.0649 15.428 80.3679 16.0795C80.6747 16.7311 81.0933 17.2235 81.6236 17.5568C82.1539 17.8902 82.7505 18.0568 83.4134 18.0568C83.7808 18.0568 84.1293 18.0076 84.4588 17.9091C84.7921 17.8068 85.0933 17.6572 85.3622 17.4602C85.6312 17.2633 85.8584 17.0227 86.044 16.7386C86.2334 16.4508 86.3641 16.1212 86.4361 15.75L88.2088 15.7557C88.1141 16.3277 87.9304 16.8542 87.6577 17.3352C87.3887 17.8125 87.0421 18.2254 86.6179 18.5739C86.1974 18.9186 85.7164 19.1856 85.1747 19.375C84.633 19.5644 84.0421 19.6591 83.402 19.6591C82.3944 19.6591 81.4967 19.4205 80.7088 18.9432C79.9209 18.4621 79.2997 17.7746 78.8452 16.8807C78.3944 15.9867 78.169 14.9205 78.169 13.6818C78.169 12.4394 78.3963 11.3731 78.8509 10.483C79.3054 9.58901 79.9266 8.90341 80.7145 8.42614C81.5024 7.94508 82.3982 7.70455 83.402 7.70455C84.0194 7.70455 84.5952 7.79356 85.1293 7.97159C85.6671 8.14583 86.1501 8.40341 86.5781 8.74432C87.0062 9.08144 87.3603 9.49432 87.6406 9.98295C87.9209 10.4678 88.1103 11.0227 88.2088 11.6477Z" fill="#333333"/>
<g filter="url(#filter0_d_1161_6059)">
<path fill-rule="evenodd" clip-rule="evenodd" d="M347.5 2C341.149 2 336 7.14873 336 13.5C336 19.8513 341.149 25 347.5 25H370.5C376.851 25 382 19.8513 382 13.5C382 7.14873 376.851 2 370.5 2H347.5ZM370.5 5.06666C365.842 5.06666 362.067 8.8424 362.067 13.5C362.067 18.1576 365.842 21.9333 370.5 21.9333C375.158 21.9333 378.933 18.1576 378.933 13.5C378.933 8.8424 375.158 5.06666 370.5 5.06666Z" fill="#FCAB10"/>
</g>
<rect y="45" width="8" height="8" rx="4" fill="#FCAB10"/>
<circle cx="4" cy="49" r="2" fill="#FEE5B5"/>
<line x1="4.5" y1="53" x2="4.5" y2="69" stroke="#FED891"/>
<rect y="69" width="8" height="8" rx="4" fill="#FCAB10"/>
<circle cx="4" cy="73" r="2" fill="#FEE5B5"/>
<line x1="4.5" y1="77" x2="4.5" y2="93" stroke="#FED891"/>
<rect y="93" width="8" height="8" rx="4" fill="#FCAB10"/>
<circle cx="4" cy="97" r="2" fill="#FEE5B5"/>
<path d="M26.3636 49C26.2386 48.6174 26.0739 48.2746 25.8693 47.9716C25.6686 47.6648 25.428 47.4034 25.1477 47.1875C24.8712 46.9716 24.5568 46.8068 24.2045 46.6932C23.8523 46.5795 23.4659 46.5227 23.0455 46.5227C22.3561 46.5227 21.7292 46.7008 21.1648 47.0568C20.6004 47.4129 20.1515 47.9375 19.8182 48.6307C19.4848 49.3239 19.3182 50.1742 19.3182 51.1818C19.3182 52.1894 19.4867 53.0398 19.8239 53.733C20.161 54.4261 20.6174 54.9508 21.1932 55.3068C21.7689 55.6629 22.4167 55.8409 23.1364 55.8409C23.803 55.8409 24.3902 55.6989 24.8977 55.4148C25.4091 55.1269 25.8068 54.7216 26.0909 54.1989C26.3788 53.6723 26.5227 53.053 26.5227 52.3409L26.9545 52.4318H23.4545V51.1818H27.8864V52.4318C27.8864 53.3902 27.6818 54.2235 27.2727 54.9318C26.8674 55.6402 26.3068 56.1894 25.5909 56.5795C24.8788 56.9659 24.0606 57.1591 23.1364 57.1591C22.1061 57.1591 21.2008 56.9167 20.4205 56.4318C19.6439 55.947 19.0379 55.2576 18.6023 54.3636C18.1705 53.4697 17.9545 52.4091 17.9545 51.1818C17.9545 50.2614 18.0777 49.4337 18.3239 48.6989C18.5739 47.9602 18.9261 47.3314 19.3807 46.8125C19.8352 46.2936 20.3731 45.8958 20.9943 45.6193C21.6155 45.3428 22.2992 45.2045 23.0455 45.2045C23.6591 45.2045 24.2311 45.2973 24.7614 45.483C25.2955 45.6648 25.7708 45.9242 26.1875 46.2614C26.608 46.5947 26.9583 46.9943 27.2386 47.4602C27.5189 47.9223 27.7121 48.4356 27.8182 49H26.3636ZM33.6634 57.1818C32.8755 57.1818 32.1842 56.9943 31.5895 56.6193C30.9986 56.2443 30.5365 55.7197 30.2031 55.0455C29.8736 54.3712 29.7088 53.5833 29.7088 52.6818C29.7088 51.7727 29.8736 50.9792 30.2031 50.3011C30.5365 49.6231 30.9986 49.0966 31.5895 48.7216C32.1842 48.3466 32.8755 48.1591 33.6634 48.1591C34.4512 48.1591 35.1406 48.3466 35.7315 48.7216C36.3262 49.0966 36.7884 49.6231 37.1179 50.3011C37.4512 50.9792 37.6179 51.7727 37.6179 52.6818C37.6179 53.5833 37.4512 54.3712 37.1179 55.0455C36.7884 55.7197 36.3262 56.2443 35.7315 56.6193C35.1406 56.9943 34.4512 57.1818 33.6634 57.1818ZM33.6634 55.9773C34.2618 55.9773 34.7543 55.8239 35.1406 55.517C35.527 55.2102 35.813 54.8068 35.9986 54.3068C36.1842 53.8068 36.277 53.2652 36.277 52.6818C36.277 52.0985 36.1842 51.5549 35.9986 51.0511C35.813 50.5473 35.527 50.1402 35.1406 49.8295C34.7543 49.5189 34.2618 49.3636 33.6634 49.3636C33.0649 49.3636 32.5724 49.5189 32.1861 49.8295C31.7997 50.1402 31.5137 50.5473 31.3281 51.0511C31.1425 51.5549 31.0497 52.0985 31.0497 52.6818C31.0497 53.2652 31.1425 53.8068 31.3281 54.3068C31.5137 54.8068 31.7997 55.2102 32.1861 55.517C32.5724 55.8239 33.0649 55.9773 33.6634 55.9773ZM47.9602 48.2727V49.4091H43.4375V48.2727H47.9602ZM44.7557 46.1818H46.0966V54.5C46.0966 54.8788 46.1515 55.1629 46.2614 55.3523C46.375 55.5379 46.5189 55.6629 46.6932 55.7273C46.8712 55.7879 47.0587 55.8182 47.2557 55.8182C47.4034 55.8182 47.5246 55.8106 47.6193 55.7955C47.714 55.7765 47.7898 55.7614 47.8466 55.75L48.1193 56.9545C48.0284 56.9886 47.9015 57.0227 47.7386 57.0568C47.5758 57.0947 47.3693 57.1136 47.1193 57.1136C46.7405 57.1136 46.3693 57.0322 46.0057 56.8693C45.6458 56.7064 45.3466 56.4583 45.108 56.125C44.8731 55.7917 44.7557 55.3712 44.7557 54.8636V46.1818ZM53.429 57.1818C52.6411 57.1818 51.9498 56.9943 51.3551 56.6193C50.7642 56.2443 50.3021 55.7197 49.9688 55.0455C49.6392 54.3712 49.4744 53.5833 49.4744 52.6818C49.4744 51.7727 49.6392 50.9792 49.9688 50.3011C50.3021 49.6231 50.7642 49.0966 51.3551 48.7216C51.9498 48.3466 52.6411 48.1591 53.429 48.1591C54.2169 48.1591 54.9063 48.3466 55.4972 48.7216C56.0919 49.0966 56.554 49.6231 56.8835 50.3011C57.2169 50.9792 57.3835 51.7727 57.3835 52.6818C57.3835 53.5833 57.2169 54.3712 56.8835 55.0455C56.554 55.7197 56.0919 56.2443 55.4972 56.6193C54.9063 56.9943 54.2169 57.1818 53.429 57.1818ZM53.429 55.9773C54.0275 55.9773 54.5199 55.8239 54.9062 55.517C55.2926 55.2102 55.5786 54.8068 55.7642 54.3068C55.9498 53.8068 56.0426 53.2652 56.0426 52.6818C56.0426 52.0985 55.9498 51.5549 55.7642 51.0511C55.5786 50.5473 55.2926 50.1402 54.9062 49.8295C54.5199 49.5189 54.0275 49.3636 53.429 49.3636C52.8305 49.3636 52.3381 49.5189 51.9517 49.8295C51.5653 50.1402 51.2794 50.5473 51.0938 51.0511C50.9081 51.5549 50.8153 52.0985 50.8153 52.6818C50.8153 53.2652 50.9081 53.8068 51.0938 54.3068C51.2794 54.8068 51.5653 55.2102 51.9517 55.517C52.3381 55.8239 52.8305 55.9773 53.429 55.9773ZM70.1122 50.2273L68.9077 50.5682C68.8319 50.3674 68.7202 50.1723 68.5724 49.983C68.4285 49.7898 68.2315 49.6307 67.9815 49.5057C67.7315 49.3807 67.4115 49.3182 67.0213 49.3182C66.4872 49.3182 66.0421 49.4413 65.6861 49.6875C65.3338 49.9299 65.1577 50.2386 65.1577 50.6136C65.1577 50.947 65.2789 51.2102 65.5213 51.4034C65.7637 51.5966 66.1425 51.7576 66.6577 51.8864L67.9531 52.2045C68.7334 52.3939 69.3149 52.6837 69.6974 53.0739C70.08 53.4602 70.2713 53.9583 70.2713 54.5682C70.2713 55.0682 70.1274 55.5152 69.8395 55.9091C69.5554 56.303 69.1577 56.6136 68.6463 56.8409C68.1349 57.0682 67.5402 57.1818 66.8622 57.1818C65.9721 57.1818 65.2353 56.9886 64.652 56.6023C64.0687 56.2159 63.6993 55.6515 63.544 54.9091L64.8168 54.5909C64.938 55.0606 65.1671 55.4129 65.5043 55.6477C65.8452 55.8826 66.2902 56 66.8395 56C67.4645 56 67.9607 55.8674 68.3281 55.6023C68.6993 55.3333 68.8849 55.0114 68.8849 54.6364C68.8849 54.3333 68.7789 54.0795 68.5668 53.875C68.3546 53.6667 68.0289 53.5114 67.5895 53.4091L66.1349 53.0682C65.3357 52.8788 64.7486 52.5852 64.3736 52.1875C64.0024 51.786 63.8168 51.2841 63.8168 50.6818C63.8168 50.1894 63.955 49.7538 64.2315 49.375C64.5118 48.9962 64.8925 48.6989 65.3736 48.483C65.8584 48.267 66.4077 48.1591 67.0213 48.1591C67.8849 48.1591 68.563 48.3485 69.0554 48.7273C69.5516 49.1061 69.9039 49.6061 70.1122 50.2273ZM75.9489 57.1818C75.108 57.1818 74.3826 56.9962 73.7727 56.625C73.1667 56.25 72.6989 55.7273 72.3693 55.0568C72.0436 54.3826 71.8807 53.5985 71.8807 52.7045C71.8807 51.8106 72.0436 51.0227 72.3693 50.3409C72.6989 49.6553 73.1572 49.1212 73.7443 48.7386C74.3352 48.3523 75.0246 48.1591 75.8125 48.1591C76.267 48.1591 76.7159 48.2348 77.1591 48.3864C77.6023 48.5379 78.0057 48.7841 78.3693 49.125C78.733 49.4621 79.0227 49.9091 79.2386 50.4659C79.4545 51.0227 79.5625 51.7083 79.5625 52.5227V53.0909H72.8352V51.9318H78.1989C78.1989 51.4394 78.1004 51 77.9034 50.6136C77.7102 50.2273 77.4337 49.9223 77.0739 49.6989C76.7178 49.4754 76.2973 49.3636 75.8125 49.3636C75.2784 49.3636 74.8163 49.4962 74.4261 49.7614C74.0398 50.0227 73.7424 50.3636 73.5341 50.7841C73.3258 51.2045 73.2216 51.6553 73.2216 52.1364V52.9091C73.2216 53.5682 73.3352 54.1269 73.5625 54.5852C73.7936 55.0398 74.1136 55.3864 74.5227 55.625C74.9318 55.8598 75.4072 55.9773 75.9489 55.9773C76.3011 55.9773 76.6193 55.928 76.9034 55.8295C77.1913 55.7273 77.4394 55.5758 77.6477 55.375C77.8561 55.1705 78.017 54.9167 78.1307 54.6136L79.4261 54.9773C79.2898 55.4167 79.0606 55.803 78.7386 56.1364C78.4167 56.4659 78.0189 56.7235 77.5455 56.9091C77.072 57.0909 76.5398 57.1818 75.9489 57.1818ZM85.3977 48.2727V49.4091H80.875V48.2727H85.3977ZM82.1932 46.1818H83.5341V54.5C83.5341 54.8788 83.589 55.1629 83.6989 55.3523C83.8125 55.5379 83.9564 55.6629 84.1307 55.7273C84.3087 55.7879 84.4962 55.8182 84.6932 55.8182C84.8409 55.8182 84.9621 55.8106 85.0568 55.7955C85.1515 55.7765 85.2273 55.7614 85.2841 55.75L85.5568 56.9545C85.4659 56.9886 85.339 57.0227 85.1761 57.0568C85.0133 57.0947 84.8068 57.1136 84.5568 57.1136C84.178 57.1136 83.8068 57.0322 83.4432 56.8693C83.0833 56.7064 82.7841 56.4583 82.5455 56.125C82.3106 55.7917 82.1932 55.3712 82.1932 54.8636V46.1818ZM91.2102 48.2727V49.4091H86.6875V48.2727H91.2102ZM88.0057 46.1818H89.3466V54.5C89.3466 54.8788 89.4015 55.1629 89.5114 55.3523C89.625 55.5379 89.7689 55.6629 89.9432 55.7273C90.1212 55.7879 90.3087 55.8182 90.5057 55.8182C90.6534 55.8182 90.7746 55.8106 90.8693 55.7955C90.964 55.7765 91.0398 55.7614 91.0966 55.75L91.3693 56.9545C91.2784 56.9886 91.1515 57.0227 90.9886 57.0568C90.8258 57.0947 90.6193 57.1136 90.3693 57.1136C89.9905 57.1136 89.6193 57.0322 89.2557 56.8693C88.8958 56.7064 88.5966 56.4583 88.358 56.125C88.1231 55.7917 88.0057 55.3712 88.0057 54.8636V46.1818ZM93.2273 57V48.2727H94.5682V57H93.2273ZM93.9091 46.8182C93.6477 46.8182 93.4223 46.7292 93.233 46.5511C93.0473 46.3731 92.9545 46.1591 92.9545 45.9091C92.9545 45.6591 93.0473 45.4451 93.233 45.267C93.4223 45.089 93.6477 45 93.9091 45C94.1705 45 94.3939 45.089 94.5795 45.267C94.7689 45.4451 94.8636 45.6591 94.8636 45.9091C94.8636 46.1591 94.7689 46.3731 94.5795 46.5511C94.3939 46.7292 94.1705 46.8182 93.9091 46.8182ZM98.3651 51.75V57H97.0241V48.2727H98.3196V49.6364H98.4332C98.6378 49.1932 98.9484 48.8371 99.3651 48.5682C99.7817 48.2955 100.32 48.1591 100.979 48.1591C101.57 48.1591 102.087 48.2803 102.53 48.5227C102.973 48.7614 103.318 49.125 103.564 49.6136C103.81 50.0985 103.933 50.7121 103.933 51.4545V57H102.592V51.5455C102.592 50.8598 102.414 50.3258 102.058 49.9432C101.702 49.5568 101.214 49.3636 100.592 49.3636C100.164 49.3636 99.7817 49.4564 99.4446 49.642C99.1113 49.8277 98.848 50.0985 98.6548 50.4545C98.4616 50.8106 98.3651 51.2424 98.3651 51.75ZM109.906 60.4545C109.259 60.4545 108.702 60.3712 108.236 60.2045C107.77 60.0417 107.382 59.8258 107.071 59.5568C106.764 59.2917 106.52 59.0076 106.338 58.7045L107.406 57.9545C107.527 58.1136 107.681 58.2955 107.866 58.5C108.052 58.7083 108.306 58.8883 108.628 59.0398C108.954 59.1951 109.38 59.2727 109.906 59.2727C110.611 59.2727 111.192 59.1023 111.651 58.7614C112.109 58.4205 112.338 57.8864 112.338 57.1591V55.3864H112.224C112.126 55.5455 111.986 55.7424 111.804 55.9773C111.626 56.2083 111.368 56.4148 111.031 56.5966C110.698 56.7746 110.247 56.8636 109.679 56.8636C108.974 56.8636 108.342 56.697 107.781 56.3636C107.224 56.0303 106.783 55.5455 106.457 54.9091C106.135 54.2727 105.974 53.5 105.974 52.5909C105.974 51.697 106.132 50.9186 106.446 50.2557C106.76 49.589 107.198 49.0739 107.759 48.7102C108.319 48.3428 108.967 48.1591 109.702 48.1591C110.27 48.1591 110.721 48.2538 111.054 48.4432C111.391 48.6288 111.649 48.8409 111.827 49.0795C112.009 49.3144 112.149 49.5076 112.247 49.6591H112.384V48.2727H113.679V57.25C113.679 58 113.509 58.6098 113.168 59.0795C112.83 59.553 112.376 59.8996 111.804 60.1193C111.236 60.3428 110.603 60.4545 109.906 60.4545ZM109.861 55.6591C110.399 55.6591 110.853 55.536 111.224 55.2898C111.596 55.0436 111.878 54.6894 112.071 54.2273C112.264 53.7652 112.361 53.2121 112.361 52.5682C112.361 51.9394 112.266 51.3845 112.077 50.9034C111.887 50.4223 111.607 50.0455 111.236 49.7727C110.865 49.5 110.406 49.3636 109.861 49.3636C109.293 49.3636 108.819 49.5076 108.44 49.7955C108.065 50.0833 107.783 50.4697 107.594 50.9545C107.408 51.4394 107.315 51.9773 107.315 52.5682C107.315 53.1742 107.41 53.7102 107.599 54.1761C107.793 54.6383 108.077 55.0019 108.452 55.267C108.83 55.5284 109.3 55.6591 109.861 55.6591ZM122.315 50.2273L121.111 50.5682C121.035 50.3674 120.923 50.1723 120.776 49.983C120.632 49.7898 120.435 49.6307 120.185 49.5057C119.935 49.3807 119.615 49.3182 119.224 49.3182C118.69 49.3182 118.245 49.4413 117.889 49.6875C117.537 49.9299 117.361 50.2386 117.361 50.6136C117.361 50.947 117.482 51.2102 117.724 51.4034C117.967 51.5966 118.346 51.7576 118.861 51.8864L120.156 52.2045C120.937 52.3939 121.518 52.6837 121.901 53.0739C122.283 53.4602 122.474 53.9583 122.474 54.5682C122.474 55.0682 122.33 55.5152 122.043 55.9091C121.759 56.303 121.361 56.6136 120.849 56.8409C120.338 57.0682 119.743 57.1818 119.065 57.1818C118.175 57.1818 117.438 56.9886 116.855 56.6023C116.272 56.2159 115.902 55.6515 115.747 54.9091L117.02 54.5909C117.141 55.0606 117.37 55.4129 117.707 55.6477C118.048 55.8826 118.493 56 119.043 56C119.668 56 120.164 55.8674 120.531 55.6023C120.902 55.3333 121.088 55.0114 121.088 54.6364C121.088 54.3333 120.982 54.0795 120.77 53.875C120.558 53.6667 120.232 53.5114 119.793 53.4091L118.338 53.0682C117.539 52.8788 116.952 52.5852 116.577 52.1875C116.205 51.786 116.02 51.2841 116.02 50.6818C116.02 50.1894 116.158 49.7538 116.435 49.375C116.715 48.9962 117.096 48.6989 117.577 48.483C118.062 48.267 118.611 48.1591 119.224 48.1591C120.088 48.1591 120.766 48.3485 121.259 48.7273C121.755 49.1061 122.107 49.6061 122.315 50.2273ZM125.47 57.0909C125.19 57.0909 124.949 56.9905 124.749 56.7898C124.548 56.589 124.447 56.3485 124.447 56.0682C124.447 55.7879 124.548 55.5473 124.749 55.3466C124.949 55.1458 125.19 55.0455 125.47 55.0455C125.75 55.0455 125.991 55.1458 126.192 55.3466C126.393 55.5473 126.493 55.7879 126.493 56.0682C126.493 56.2538 126.446 56.4242 126.351 56.5795C126.26 56.7348 126.137 56.8598 125.982 56.9545C125.83 57.0455 125.66 57.0909 125.47 57.0909ZM24.7727 70.2727C24.7045 69.697 24.428 69.25 23.9432 68.9318C23.4583 68.6136 22.8636 68.4545 22.1591 68.4545C21.6439 68.4545 21.1932 68.5379 20.8068 68.7045C20.4242 68.8712 20.125 69.1004 19.9091 69.392C19.697 69.6837 19.5909 70.0152 19.5909 70.3864C19.5909 70.697 19.6648 70.964 19.8125 71.1875C19.964 71.4072 20.1572 71.5909 20.392 71.7386C20.6269 71.8826 20.8731 72.0019 21.1307 72.0966C21.3883 72.1875 21.625 72.2614 21.8409 72.3182L23.0227 72.6364C23.3258 72.7159 23.6629 72.8258 24.0341 72.9659C24.4091 73.1061 24.767 73.2973 25.108 73.5398C25.4527 73.7784 25.7367 74.0852 25.9602 74.4602C26.1837 74.8352 26.2955 75.2955 26.2955 75.8409C26.2955 76.4697 26.1307 77.0379 25.8011 77.5455C25.4754 78.053 24.9981 78.4564 24.3693 78.7557C23.7443 79.0549 22.9848 79.2045 22.0909 79.2045C21.2576 79.2045 20.536 79.0701 19.9261 78.8011C19.3201 78.5322 18.8428 78.1572 18.4943 77.6761C18.1496 77.1951 17.9545 76.6364 17.9091 76H19.3636C19.4015 76.4394 19.5492 76.803 19.8068 77.0909C20.0682 77.375 20.3977 77.5871 20.7955 77.7273C21.197 77.8636 21.6288 77.9318 22.0909 77.9318C22.6288 77.9318 23.1117 77.8447 23.5398 77.6705C23.9678 77.4924 24.3068 77.2462 24.5568 76.9318C24.8068 76.6136 24.9318 76.2424 24.9318 75.8182C24.9318 75.4318 24.8239 75.1174 24.608 74.875C24.392 74.6326 24.108 74.4356 23.7557 74.2841C23.4034 74.1326 23.0227 74 22.6136 73.8864L21.1818 73.4773C20.2727 73.2159 19.553 72.8428 19.0227 72.358C18.4924 71.8731 18.2273 71.2386 18.2273 70.4545C18.2273 69.803 18.4034 69.2348 18.7557 68.75C19.1117 68.2614 19.589 67.8826 20.1875 67.6136C20.7898 67.3409 21.4621 67.2045 22.2045 67.2045C22.9545 67.2045 23.6212 67.339 24.2045 67.608C24.7879 67.8731 25.25 68.2367 25.5909 68.6989C25.9356 69.161 26.1174 69.6856 26.1364 70.2727H24.7727ZM32.0895 79.1818C31.2486 79.1818 30.5232 78.9962 29.9134 78.625C29.3073 78.25 28.8395 77.7273 28.5099 77.0568C28.1842 76.3826 28.0213 75.5985 28.0213 74.7045C28.0213 73.8106 28.1842 73.0227 28.5099 72.3409C28.8395 71.6553 29.2978 71.1212 29.8849 70.7386C30.4759 70.3523 31.1652 70.1591 31.9531 70.1591C32.4077 70.1591 32.8565 70.2348 33.2997 70.3864C33.7429 70.5379 34.1463 70.7841 34.5099 71.125C34.8736 71.4621 35.1634 71.9091 35.3793 72.4659C35.5952 73.0227 35.7031 73.7083 35.7031 74.5227V75.0909H28.9759V73.9318H34.3395C34.3395 73.4394 34.241 73 34.044 72.6136C33.8509 72.2273 33.5743 71.9223 33.2145 71.6989C32.8584 71.4754 32.438 71.3636 31.9531 71.3636C31.419 71.3636 30.9569 71.4962 30.5668 71.7614C30.1804 72.0227 29.883 72.3636 29.6747 72.7841C29.4664 73.2045 29.3622 73.6553 29.3622 74.1364V74.9091C29.3622 75.5682 29.4759 76.1269 29.7031 76.5852C29.9342 77.0398 30.2543 77.3864 30.6634 77.625C31.0724 77.8598 31.5478 77.9773 32.0895 77.9773C32.4418 77.9773 32.7599 77.928 33.044 77.8295C33.3319 77.7273 33.58 77.5758 33.7884 77.375C33.9967 77.1705 34.1577 76.9167 34.2713 76.6136L35.5668 76.9773C35.4304 77.4167 35.2012 77.803 34.8793 78.1364C34.5573 78.4659 34.1596 78.7235 33.6861 78.9091C33.2126 79.0909 32.6804 79.1818 32.0895 79.1818ZM39.0838 67.3636V79H37.7429V67.3636H39.0838ZM45.1989 79.1818C44.358 79.1818 43.6326 78.9962 43.0227 78.625C42.4167 78.25 41.9489 77.7273 41.6193 77.0568C41.2936 76.3826 41.1307 75.5985 41.1307 74.7045C41.1307 73.8106 41.2936 73.0227 41.6193 72.3409C41.9489 71.6553 42.4072 71.1212 42.9943 70.7386C43.5852 70.3523 44.2746 70.1591 45.0625 70.1591C45.517 70.1591 45.9659 70.2348 46.4091 70.3864C46.8523 70.5379 47.2557 70.7841 47.6193 71.125C47.983 71.4621 48.2727 71.9091 48.4886 72.4659C48.7045 73.0227 48.8125 73.7083 48.8125 74.5227V75.0909H42.0852V73.9318H47.4489C47.4489 73.4394 47.3504 73 47.1534 72.6136C46.9602 72.2273 46.6837 71.9223 46.3239 71.6989C45.9678 71.4754 45.5473 71.3636 45.0625 71.3636C44.5284 71.3636 44.0663 71.4962 43.6761 71.7614C43.2898 72.0227 42.9924 72.3636 42.7841 72.7841C42.5758 73.2045 42.4716 73.6553 42.4716 74.1364V74.9091C42.4716 75.5682 42.5852 76.1269 42.8125 76.5852C43.0436 77.0398 43.3636 77.3864 43.7727 77.625C44.1818 77.8598 44.6572 77.9773 45.1989 77.9773C45.5511 77.9773 45.8693 77.928 46.1534 77.8295C46.4413 77.7273 46.6894 77.5758 46.8977 77.375C47.1061 77.1705 47.267 76.9167 47.3807 76.6136L48.6761 76.9773C48.5398 77.4167 48.3106 77.803 47.9886 78.1364C47.6667 78.4659 47.2689 78.7235 46.7955 78.9091C46.322 79.0909 45.7898 79.1818 45.1989 79.1818ZM54.3977 79.1818C53.5795 79.1818 52.875 78.9886 52.2841 78.6023C51.6932 78.2159 51.2386 77.6837 50.9205 77.0057C50.6023 76.3277 50.4432 75.553 50.4432 74.6818C50.4432 73.7955 50.6061 73.0133 50.9318 72.3352C51.2614 71.6534 51.7197 71.1212 52.3068 70.7386C52.8977 70.3523 53.5871 70.1591 54.375 70.1591C54.9886 70.1591 55.5417 70.2727 56.0341 70.5C56.5265 70.7273 56.9299 71.0455 57.2443 71.4545C57.5587 71.8636 57.7538 72.3409 57.8295 72.8864H56.4886C56.3864 72.4886 56.1591 72.1364 55.8068 71.8295C55.4583 71.5189 54.9886 71.3636 54.3977 71.3636C53.875 71.3636 53.4167 71.5 53.0227 71.7727C52.6326 72.0417 52.3277 72.4223 52.108 72.9148C51.892 73.4034 51.7841 73.9773 51.7841 74.6364C51.7841 75.3106 51.8902 75.8977 52.1023 76.3977C52.3182 76.8977 52.6212 77.286 53.0114 77.5625C53.4053 77.839 53.8674 77.9773 54.3977 77.9773C54.7462 77.9773 55.0625 77.9167 55.3466 77.7955C55.6307 77.6742 55.8712 77.5 56.0682 77.2727C56.2652 77.0455 56.4053 76.7727 56.4886 76.4545H57.8295C57.7538 76.9697 57.5663 77.4337 57.267 77.8466C56.9716 78.2557 56.5795 78.5814 56.0909 78.8239C55.6061 79.0625 55.0417 79.1818 54.3977 79.1818ZM63.5852 70.2727V71.4091H59.0625V70.2727H63.5852ZM60.3807 68.1818H61.7216V76.5C61.7216 76.8788 61.7765 77.1629 61.8864 77.3523C62 77.5379 62.1439 77.6629 62.3182 77.7273C62.4962 77.7879 62.6837 77.8182 62.8807 77.8182C63.0284 77.8182 63.1496 77.8106 63.2443 77.7955C63.339 77.7765 63.4148 77.7614 63.4716 77.75L63.7443 78.9545C63.6534 78.9886 63.5265 79.0227 63.3636 79.0568C63.2008 79.0947 62.9943 79.1136 62.7443 79.1136C62.3655 79.1136 61.9943 79.0322 61.6307 78.8693C61.2708 78.7064 60.9716 78.4583 60.733 78.125C60.4981 77.7917 60.3807 77.3712 60.3807 76.8636V68.1818ZM71.2614 67.3636V71.3636H70.0114V67.3636H71.2614ZM74.1705 67.3636V71.3636H72.9205V67.3636H74.1705ZM85.9645 67.3636V79H84.6009L78.2599 69.8636H78.1463V79H76.7372V67.3636H78.1009L84.4645 76.5227H84.5781V67.3636H85.9645ZM88.7841 79V67.3636H95.7614V68.6136H90.1932V72.5455H95.2386V73.7955H90.1932V79H88.7841ZM107.538 71H106.129C106.046 70.5947 105.9 70.2386 105.692 69.9318C105.487 69.625 105.237 69.3674 104.942 69.1591C104.65 68.947 104.326 68.7879 103.97 68.6818C103.614 68.5758 103.243 68.5227 102.857 68.5227C102.152 68.5227 101.514 68.7008 100.942 69.0568C100.374 69.4129 99.9209 69.9375 99.5838 70.6307C99.2505 71.3239 99.0838 72.1742 99.0838 73.1818C99.0838 74.1894 99.2505 75.0398 99.5838 75.733C99.9209 76.4261 100.374 76.9508 100.942 77.3068C101.514 77.6629 102.152 77.8409 102.857 77.8409C103.243 77.8409 103.614 77.7879 103.97 77.6818C104.326 77.5758 104.65 77.4186 104.942 77.2102C105.237 76.9981 105.487 76.7386 105.692 76.4318C105.9 76.1212 106.046 75.7652 106.129 75.3636H107.538C107.432 75.9583 107.239 76.4905 106.959 76.9602C106.679 77.4299 106.33 77.8295 105.913 78.1591C105.497 78.4848 105.029 78.733 104.51 78.9034C103.995 79.0739 103.444 79.1591 102.857 79.1591C101.864 79.1591 100.982 78.9167 100.209 78.4318C99.4361 77.947 98.8281 77.2576 98.3849 76.3636C97.9418 75.4697 97.7202 74.4091 97.7202 73.1818C97.7202 71.9545 97.9418 70.8939 98.3849 70C98.8281 69.1061 99.4361 68.4167 100.209 67.9318C100.982 67.447 101.864 67.2045 102.857 67.2045C103.444 67.2045 103.995 67.2898 104.51 67.4602C105.029 67.6307 105.497 67.8807 105.913 68.2102C106.33 68.536 106.679 68.9337 106.959 69.4034C107.239 69.8693 107.432 70.4015 107.538 71ZM110.793 67.3636V71.3636H109.543V67.3636H110.793ZM113.702 67.3636V71.3636H112.452V67.3636H113.702ZM126.087 75.4318V70.2727H127.428V79H126.087V77.5227H125.996C125.791 77.9659 125.473 78.3428 125.041 78.6534C124.609 78.9602 124.064 79.1136 123.405 79.1136C122.859 79.1136 122.375 78.9943 121.95 78.7557C121.526 78.5133 121.193 78.1496 120.95 77.6648C120.708 77.1761 120.587 76.5606 120.587 75.8182V70.2727H121.928V75.7273C121.928 76.3636 122.106 76.8712 122.462 77.25C122.821 77.6288 123.28 77.8182 123.837 77.8182C124.17 77.8182 124.509 77.733 124.854 77.5625C125.202 77.392 125.494 77.1307 125.729 76.7784C125.967 76.4261 126.087 75.9773 126.087 75.4318ZM131.224 73.75V79H129.884V70.2727H131.179V71.6364H131.293C131.497 71.1932 131.808 70.8371 132.224 70.5682C132.641 70.2955 133.179 70.1591 133.838 70.1591C134.429 70.1591 134.946 70.2803 135.389 70.5227C135.832 70.7614 136.177 71.125 136.423 71.6136C136.67 72.0985 136.793 72.7121 136.793 73.4545V79H135.452V73.5455C135.452 72.8598 135.274 72.3258 134.918 71.9432C134.562 71.5568 134.073 71.3636 133.452 71.3636C133.024 71.3636 132.641 71.4564 132.304 71.642C131.971 71.8277 131.707 72.0985 131.514 72.4545C131.321 72.8106 131.224 73.2424 131.224 73.75ZM142.538 79.1818C141.811 79.1818 141.169 78.9981 140.612 78.6307C140.055 78.2595 139.62 77.7367 139.305 77.0625C138.991 76.3845 138.834 75.5833 138.834 74.6591C138.834 73.7424 138.991 72.947 139.305 72.2727C139.62 71.5985 140.057 71.0777 140.618 70.7102C141.179 70.3428 141.826 70.1591 142.561 70.1591C143.129 70.1591 143.578 70.2538 143.908 70.4432C144.241 70.6288 144.495 70.8409 144.669 71.0795C144.847 71.3144 144.985 71.5076 145.084 71.6591H145.197V67.3636H146.538V79H145.243V77.6591H145.084C144.985 77.8182 144.845 78.0189 144.663 78.2614C144.482 78.5 144.222 78.714 143.885 78.9034C143.548 79.089 143.099 79.1818 142.538 79.1818ZM142.72 77.9773C143.258 77.9773 143.713 77.8371 144.084 77.5568C144.455 77.2727 144.737 76.8807 144.93 76.3807C145.124 75.8769 145.22 75.2955 145.22 74.6364C145.22 73.9848 145.125 73.4148 144.936 72.9261C144.747 72.4337 144.466 72.0511 144.095 71.7784C143.724 71.5019 143.266 71.3636 142.72 71.3636C142.152 71.3636 141.679 71.5095 141.3 71.8011C140.925 72.089 140.643 72.4811 140.453 72.9773C140.268 73.4697 140.175 74.0227 140.175 74.6364C140.175 75.2576 140.269 75.822 140.459 76.3295C140.652 76.8333 140.936 77.2348 141.311 77.5341C141.69 77.8295 142.16 77.9773 142.72 77.9773ZM152.839 79.1818C151.999 79.1818 151.273 78.9962 150.663 78.625C150.057 78.25 149.589 77.7273 149.26 77.0568C148.934 76.3826 148.771 75.5985 148.771 74.7045C148.771 73.8106 148.934 73.0227 149.26 72.3409C149.589 71.6553 150.048 71.1212 150.635 70.7386C151.226 70.3523 151.915 70.1591 152.703 70.1591C153.158 70.1591 153.607 70.2348 154.05 70.3864C154.493 70.5379 154.896 70.7841 155.26 71.125C155.624 71.4621 155.913 71.9091 156.129 72.4659C156.345 73.0227 156.453 73.7083 156.453 74.5227V75.0909H149.726V73.9318H155.089C155.089 73.4394 154.991 73 154.794 72.6136C154.601 72.2273 154.324 71.9223 153.964 71.6989C153.608 71.4754 153.188 71.3636 152.703 71.3636C152.169 71.3636 151.707 71.4962 151.317 71.7614C150.93 72.0227 150.633 72.3636 150.425 72.7841C150.216 73.2045 150.112 73.6553 150.112 74.1364V74.9091C150.112 75.5682 150.226 76.1269 150.453 76.5852C150.684 77.0398 151.004 77.3864 151.413 77.625C151.822 77.8598 152.298 77.9773 152.839 77.9773C153.192 77.9773 153.51 77.928 153.794 77.8295C154.082 77.7273 154.33 77.5758 154.538 77.375C154.747 77.1705 154.908 76.9167 155.021 76.6136L156.317 76.9773C156.18 77.4167 155.951 77.803 155.629 78.1364C155.307 78.4659 154.91 78.7235 154.436 78.9091C153.963 79.0909 153.43 79.1818 152.839 79.1818ZM158.493 79V70.2727H159.788V71.5909H159.879C160.038 71.1591 160.326 70.8087 160.743 70.5398C161.16 70.2708 161.629 70.1364 162.152 70.1364C162.25 70.1364 162.374 70.1383 162.521 70.142C162.669 70.1458 162.781 70.1515 162.857 70.1591V71.5227C162.811 71.5114 162.707 71.4943 162.544 71.4716C162.385 71.4451 162.216 71.4318 162.038 71.4318C161.614 71.4318 161.235 71.5208 160.902 71.6989C160.572 71.8731 160.311 72.1155 160.118 72.4261C159.929 72.733 159.834 73.0833 159.834 73.4773V79H158.493ZM170.105 67.3636V71.3636H168.855V67.3636H170.105ZM173.014 67.3636V71.3636H171.764V67.3636H173.014ZM184.945 71H183.536C183.452 70.5947 183.306 70.2386 183.098 69.9318C182.893 69.625 182.643 69.3674 182.348 69.1591C182.056 68.947 181.732 68.7879 181.376 68.6818C181.02 68.5758 180.649 68.5227 180.263 68.5227C179.558 68.5227 178.92 68.7008 178.348 69.0568C177.78 69.4129 177.327 69.9375 176.99 70.6307C176.657 71.3239 176.49 72.1742 176.49 73.1818C176.49 74.1894 176.657 75.0398 176.99 75.733C177.327 76.4261 177.78 76.9508 178.348 77.3068C178.92 77.6629 179.558 77.8409 180.263 77.8409C180.649 77.8409 181.02 77.7879 181.376 77.6818C181.732 77.5758 182.056 77.4186 182.348 77.2102C182.643 76.9981 182.893 76.7386 183.098 76.4318C183.306 76.1212 183.452 75.7652 183.536 75.3636H184.945C184.839 75.9583 184.645 76.4905 184.365 76.9602C184.085 77.4299 183.736 77.8295 183.32 78.1591C182.903 78.4848 182.435 78.733 181.916 78.9034C181.401 79.0739 180.85 79.1591 180.263 79.1591C179.27 79.1591 178.388 78.9167 177.615 78.4318C176.842 77.947 176.234 77.2576 175.791 76.3636C175.348 75.4697 175.126 74.4091 175.126 73.1818C175.126 71.9545 175.348 70.8939 175.791 70C176.234 69.1061 176.842 68.4167 177.615 67.9318C178.388 67.447 179.27 67.2045 180.263 67.2045C180.85 67.2045 181.401 67.2898 181.916 67.4602C182.435 67.6307 182.903 67.8807 183.32 68.2102C183.736 68.536 184.085 68.9337 184.365 69.4034C184.645 69.8693 184.839 70.4015 184.945 71ZM190.585 79.1818C189.797 79.1818 189.106 78.9943 188.511 78.6193C187.92 78.2443 187.458 77.7197 187.125 77.0455C186.795 76.3712 186.631 75.5833 186.631 74.6818C186.631 73.7727 186.795 72.9792 187.125 72.3011C187.458 71.6231 187.92 71.0966 188.511 70.7216C189.106 70.3466 189.797 70.1591 190.585 70.1591C191.373 70.1591 192.063 70.3466 192.653 70.7216C193.248 71.0966 193.71 71.6231 194.04 72.3011C194.373 72.9792 194.54 73.7727 194.54 74.6818C194.54 75.5833 194.373 76.3712 194.04 77.0455C193.71 77.7197 193.248 78.2443 192.653 78.6193C192.063 78.9943 191.373 79.1818 190.585 79.1818ZM190.585 77.9773C191.184 77.9773 191.676 77.8239 192.062 77.517C192.449 77.2102 192.735 76.8068 192.92 76.3068C193.106 75.8068 193.199 75.2652 193.199 74.6818C193.199 74.0985 193.106 73.5549 192.92 73.0511C192.735 72.5473 192.449 72.1402 192.062 71.8295C191.676 71.5189 191.184 71.3636 190.585 71.3636C189.987 71.3636 189.494 71.5189 189.108 71.8295C188.722 72.1402 188.436 72.5473 188.25 73.0511C188.064 73.5549 187.972 74.0985 187.972 74.6818C187.972 75.2652 188.064 75.8068 188.25 76.3068C188.436 76.8068 188.722 77.2102 189.108 77.517C189.494 77.8239 189.987 77.9773 190.585 77.9773ZM197.928 73.75V79H196.587V70.2727H197.882V71.6364H197.996C198.2 71.1932 198.511 70.8371 198.928 70.5682C199.344 70.2955 199.882 70.1591 200.541 70.1591C201.132 70.1591 201.649 70.2803 202.092 70.5227C202.536 70.7614 202.88 71.125 203.126 71.6136C203.373 72.0985 203.496 72.7121 203.496 73.4545V79H202.155V73.5455C202.155 72.8598 201.977 72.3258 201.621 71.9432C201.265 71.5568 200.776 71.3636 200.155 71.3636C199.727 71.3636 199.344 71.4564 199.007 71.642C198.674 71.8277 198.411 72.0985 198.217 72.4545C198.024 72.8106 197.928 73.2424 197.928 73.75ZM207.287 73.75V79H205.946V70.2727H207.241V71.6364H207.355C207.56 71.1932 207.87 70.8371 208.287 70.5682C208.704 70.2955 209.241 70.1591 209.901 70.1591C210.491 70.1591 211.009 70.2803 211.452 70.5227C211.895 70.7614 212.24 71.125 212.486 71.6136C212.732 72.0985 212.855 72.7121 212.855 73.4545V79H211.514V73.5455C211.514 72.8598 211.336 72.3258 210.98 71.9432C210.624 71.5568 210.135 71.3636 209.514 71.3636C209.086 71.3636 208.704 71.4564 208.366 71.642C208.033 71.8277 207.77 72.0985 207.577 72.4545C207.384 72.8106 207.287 73.2424 207.287 73.75ZM218.964 79.1818C218.124 79.1818 217.398 78.9962 216.788 78.625C216.182 78.25 215.714 77.7273 215.385 77.0568C215.059 76.3826 214.896 75.5985 214.896 74.7045C214.896 73.8106 215.059 73.0227 215.385 72.3409C215.714 71.6553 216.173 71.1212 216.76 70.7386C217.351 70.3523 218.04 70.1591 218.828 70.1591C219.283 70.1591 219.732 70.2348 220.175 70.3864C220.618 70.5379 221.021 70.7841 221.385 71.125C221.749 71.4621 222.038 71.9091 222.254 72.4659C222.47 73.0227 222.578 73.7083 222.578 74.5227V75.0909H215.851V73.9318H221.214C221.214 73.4394 221.116 73 220.919 72.6136C220.726 72.2273 220.449 71.9223 220.089 71.6989C219.733 71.4754 219.313 71.3636 218.828 71.3636C218.294 71.3636 217.832 71.4962 217.442 71.7614C217.055 72.0227 216.758 72.3636 216.55 72.7841C216.341 73.2045 216.237 73.6553 216.237 74.1364V74.9091C216.237 75.5682 216.351 76.1269 216.578 76.5852C216.809 77.0398 217.129 77.3864 217.538 77.625C217.947 77.8598 218.423 77.9773 218.964 77.9773C219.317 77.9773 219.635 77.928 219.919 77.8295C220.207 77.7273 220.455 77.5758 220.663 77.375C220.872 77.1705 221.033 76.9167 221.146 76.6136L222.442 76.9773C222.305 77.4167 222.076 77.803 221.754 78.1364C221.432 78.4659 221.035 78.7235 220.561 78.9091C220.088 79.0909 219.555 79.1818 218.964 79.1818ZM228.163 79.1818C227.345 79.1818 226.641 78.9886 226.05 78.6023C225.459 78.2159 225.004 77.6837 224.686 77.0057C224.368 76.3277 224.209 75.553 224.209 74.6818C224.209 73.7955 224.372 73.0133 224.697 72.3352C225.027 71.6534 225.485 71.1212 226.072 70.7386C226.663 70.3523 227.353 70.1591 228.141 70.1591C228.754 70.1591 229.307 70.2727 229.8 70.5C230.292 70.7273 230.696 71.0455 231.01 71.4545C231.324 71.8636 231.519 72.3409 231.595 72.8864H230.254C230.152 72.4886 229.925 72.1364 229.572 71.8295C229.224 71.5189 228.754 71.3636 228.163 71.3636C227.641 71.3636 227.182 71.5 226.788 71.7727C226.398 72.0417 226.093 72.4223 225.874 72.9148C225.658 73.4034 225.55 73.9773 225.55 74.6364C225.55 75.3106 225.656 75.8977 225.868 76.3977C226.084 76.8977 226.387 77.286 226.777 77.5625C227.171 77.839 227.633 77.9773 228.163 77.9773C228.512 77.9773 228.828 77.9167 229.112 77.7955C229.396 77.6742 229.637 77.5 229.834 77.2727C230.031 77.0455 230.171 76.7727 230.254 76.4545H231.595C231.519 76.9697 231.332 77.4337 231.033 77.8466C230.737 78.2557 230.345 78.5814 229.857 78.8239C229.372 79.0625 228.807 79.1818 228.163 79.1818ZM237.351 70.2727V71.4091H232.828V70.2727H237.351ZM234.146 68.1818H235.487V76.5C235.487 76.8788 235.542 77.1629 235.652 77.3523C235.766 77.5379 235.91 77.6629 236.084 77.7273C236.262 77.7879 236.449 77.8182 236.646 77.8182C236.794 77.8182 236.915 77.8106 237.01 77.7955C237.105 77.7765 237.18 77.7614 237.237 77.75L237.51 78.9545C237.419 78.9886 237.292 79.0227 237.129 79.0568C236.966 79.0947 236.76 79.1136 236.51 79.1136C236.131 79.1136 235.76 79.0322 235.396 78.8693C235.036 78.7064 234.737 78.4583 234.499 78.125C234.264 77.7917 234.146 77.3712 234.146 76.8636V68.1818ZM239.368 79V70.2727H240.709V79H239.368ZM240.05 68.8182C239.788 68.8182 239.563 68.7292 239.374 68.5511C239.188 68.3731 239.095 68.1591 239.095 67.9091C239.095 67.6591 239.188 67.4451 239.374 67.267C239.563 67.089 239.788 67 240.05 67C240.311 67 240.535 67.089 240.72 67.267C240.91 67.4451 241.004 67.6591 241.004 67.9091C241.004 68.1591 240.91 68.3731 240.72 68.5511C240.535 68.7292 240.311 68.8182 240.05 68.8182ZM246.71 79.1818C245.922 79.1818 245.231 78.9943 244.636 78.6193C244.045 78.2443 243.583 77.7197 243.25 77.0455C242.92 76.3712 242.756 75.5833 242.756 74.6818C242.756 73.7727 242.92 72.9792 243.25 72.3011C243.583 71.6231 244.045 71.0966 244.636 70.7216C245.231 70.3466 245.922 70.1591 246.71 70.1591C247.498 70.1591 248.188 70.3466 248.778 70.7216C249.373 71.0966 249.835 71.6231 250.165 72.3011C250.498 72.9792 250.665 73.7727 250.665 74.6818C250.665 75.5833 250.498 76.3712 250.165 77.0455C249.835 77.7197 249.373 78.2443 248.778 78.6193C248.188 78.9943 247.498 79.1818 246.71 79.1818ZM246.71 77.9773C247.309 77.9773 247.801 77.8239 248.188 77.517C248.574 77.2102 248.86 76.8068 249.045 76.3068C249.231 75.8068 249.324 75.2652 249.324 74.6818C249.324 74.0985 249.231 73.5549 249.045 73.0511C248.86 72.5473 248.574 72.1402 248.188 71.8295C247.801 71.5189 247.309 71.3636 246.71 71.3636C246.112 71.3636 245.619 71.5189 245.233 71.8295C244.847 72.1402 244.561 72.5473 244.375 73.0511C244.189 73.5549 244.097 74.0985 244.097 74.6818C244.097 75.2652 244.189 75.8068 244.375 76.3068C244.561 76.8068 244.847 77.2102 245.233 77.517C245.619 77.8239 246.112 77.9773 246.71 77.9773ZM254.053 73.75V79H252.712V70.2727H254.007V71.6364H254.121C254.325 71.1932 254.636 70.8371 255.053 70.5682C255.469 70.2955 256.007 70.1591 256.666 70.1591C257.257 70.1591 257.774 70.2803 258.217 70.5227C258.661 70.7614 259.005 71.125 259.251 71.6136C259.498 72.0985 259.621 72.7121 259.621 73.4545V79H258.28V73.5455C258.28 72.8598 258.102 72.3258 257.746 71.9432C257.39 71.5568 256.901 71.3636 256.28 71.3636C255.852 71.3636 255.469 71.4564 255.132 71.642C254.799 71.8277 254.536 72.0985 254.342 72.4545C254.149 72.8106 254.053 73.2424 254.053 73.75ZM268.253 72.2273L267.048 72.5682C266.973 72.3674 266.861 72.1723 266.713 71.983C266.569 71.7898 266.372 71.6307 266.122 71.5057C265.872 71.3807 265.552 71.3182 265.162 71.3182C264.628 71.3182 264.183 71.4413 263.827 71.6875C263.474 71.9299 263.298 72.2386 263.298 72.6136C263.298 72.947 263.42 73.2102 263.662 73.4034C263.904 73.5966 264.283 73.7576 264.798 73.8864L266.094 74.2045C266.874 74.3939 267.455 74.6837 267.838 75.0739C268.221 75.4602 268.412 75.9583 268.412 76.5682C268.412 77.0682 268.268 77.5152 267.98 77.9091C267.696 78.303 267.298 78.6136 266.787 78.8409C266.276 79.0682 265.681 79.1818 265.003 79.1818C264.113 79.1818 263.376 78.9886 262.793 78.6023C262.209 78.2159 261.84 77.6515 261.685 76.9091L262.957 76.5909C263.079 77.0606 263.308 77.4129 263.645 77.6477C263.986 77.8826 264.431 78 264.98 78C265.605 78 266.101 77.8674 266.469 77.6023C266.84 77.3333 267.026 77.0114 267.026 76.6364C267.026 76.3333 266.92 76.0795 266.707 75.875C266.495 75.6667 266.17 75.5114 265.73 75.4091L264.276 75.0682C263.476 74.8788 262.889 74.5852 262.514 74.1875C262.143 73.786 261.957 73.2841 261.957 72.6818C261.957 72.1894 262.096 71.7538 262.372 71.375C262.652 70.9962 263.033 70.6989 263.514 70.483C263.999 70.267 264.548 70.1591 265.162 70.1591C266.026 70.1591 266.704 70.3485 267.196 70.7273C267.692 71.1061 268.045 71.6061 268.253 72.2273ZM271.589 67.3636V71.3636H270.339V67.3636H271.589ZM274.499 67.3636V71.3636H273.249V67.3636H274.499ZM276.548 79.0909C276.268 79.0909 276.027 78.9905 275.827 78.7898C275.626 78.589 275.526 78.3485 275.526 78.0682C275.526 77.7879 275.626 77.5473 275.827 77.3466C276.027 77.1458 276.268 77.0455 276.548 77.0455C276.829 77.0455 277.069 77.1458 277.27 77.3466C277.471 77.5473 277.571 77.7879 277.571 78.0682C277.571 78.2538 277.524 78.4242 277.429 78.5795C277.338 78.7348 277.215 78.8598 277.06 78.9545C276.908 79.0455 276.738 79.0909 276.548 79.0909ZM17.7727 90.6136V89.3636H26.5V90.6136H22.8409V101H21.4318V90.6136H17.7727ZM30.7727 101.182C29.9848 101.182 29.2936 100.994 28.6989 100.619C28.108 100.244 27.6458 99.7197 27.3125 99.0455C26.983 98.3712 26.8182 97.5833 26.8182 96.6818C26.8182 95.7727 26.983 94.9792 27.3125 94.3011C27.6458 93.6231 28.108 93.0966 28.6989 92.7216C29.2936 92.3466 29.9848 92.1591 30.7727 92.1591C31.5606 92.1591 32.25 92.3466 32.8409 92.7216C33.4356 93.0966 33.8977 93.6231 34.2273 94.3011C34.5606 94.9792 34.7273 95.7727 34.7273 96.6818C34.7273 97.5833 34.5606 98.3712 34.2273 99.0455C33.8977 99.7197 33.4356 100.244 32.8409 100.619C32.25 100.994 31.5606 101.182 30.7727 101.182ZM30.7727 99.9773C31.3712 99.9773 31.8636 99.8239 32.25 99.517C32.6364 99.2102 32.9223 98.8068 33.108 98.3068C33.2936 97.8068 33.3864 97.2652 33.3864 96.6818C33.3864 96.0985 33.2936 95.5549 33.108 95.0511C32.9223 94.5473 32.6364 94.1402 32.25 93.8295C31.8636 93.5189 31.3712 93.3636 30.7727 93.3636C30.1742 93.3636 29.6818 93.5189 29.2955 93.8295C28.9091 94.1402 28.6231 94.5473 28.4375 95.0511C28.2519 95.5549 28.1591 96.0985 28.1591 96.6818C28.1591 97.2652 28.2519 97.8068 28.4375 98.3068C28.6231 98.8068 28.9091 99.2102 29.2955 99.517C29.6818 99.8239 30.1742 99.9773 30.7727 99.9773ZM40.2969 104.455C39.6491 104.455 39.0923 104.371 38.6264 104.205C38.1605 104.042 37.7723 103.826 37.4616 103.557C37.1548 103.292 36.9105 103.008 36.7287 102.705L37.7969 101.955C37.9181 102.114 38.0715 102.295 38.2571 102.5C38.4427 102.708 38.6965 102.888 39.0185 103.04C39.3442 103.195 39.7704 103.273 40.2969 103.273C41.0014 103.273 41.5829 103.102 42.0412 102.761C42.4995 102.42 42.7287 101.886 42.7287 101.159V99.3864H42.6151C42.5166 99.5455 42.3764 99.7424 42.1946 99.9773C42.0166 100.208 41.759 100.415 41.4219 100.597C41.0885 100.775 40.6378 100.864 40.0696 100.864C39.3651 100.864 38.7325 100.697 38.1719 100.364C37.6151 100.03 37.1738 99.5455 36.848 98.9091C36.526 98.2727 36.3651 97.5 36.3651 96.5909C36.3651 95.697 36.5223 94.9186 36.8366 94.2557C37.151 93.589 37.5885 93.0739 38.1491 92.7102C38.7098 92.3428 39.3575 92.1591 40.0923 92.1591C40.6605 92.1591 41.1113 92.2538 41.4446 92.4432C41.7817 92.6288 42.0393 92.8409 42.2173 93.0795C42.3991 93.3144 42.5393 93.5076 42.6378 93.6591H42.7741V92.2727H44.0696V101.25C44.0696 102 43.8991 102.61 43.5582 103.08C43.2211 103.553 42.7666 103.9 42.1946 104.119C41.6264 104.343 40.9938 104.455 40.2969 104.455ZM40.2514 99.6591C40.7893 99.6591 41.2438 99.536 41.6151 99.2898C41.9863 99.0436 42.2685 98.6894 42.4616 98.2273C42.6548 97.7652 42.7514 97.2121 42.7514 96.5682C42.7514 95.9394 42.6567 95.3845 42.4673 94.9034C42.2779 94.4223 41.9976 94.0455 41.6264 93.7727C41.2552 93.5 40.7969 93.3636 40.2514 93.3636C39.6832 93.3636 39.2098 93.5076 38.831 93.7955C38.456 94.0833 38.1738 94.4697 37.9844 94.9545C37.7988 95.4394 37.706 95.9773 37.706 96.5682C37.706 97.1742 37.8007 97.7102 37.9901 98.1761C38.1832 98.6383 38.4673 99.0019 38.8423 99.267C39.2211 99.5284 39.6908 99.6591 40.2514 99.6591ZM50.0469 104.455C49.3991 104.455 48.8423 104.371 48.3764 104.205C47.9105 104.042 47.5223 103.826 47.2116 103.557C46.9048 103.292 46.6605 103.008 46.4787 102.705L47.5469 101.955C47.6681 102.114 47.8215 102.295 48.0071 102.5C48.1927 102.708 48.4465 102.888 48.7685 103.04C49.0942 103.195 49.5204 103.273 50.0469 103.273C50.7514 103.273 51.3329 103.102 51.7912 102.761C52.2495 102.42 52.4787 101.886 52.4787 101.159V99.3864H52.3651C52.2666 99.5455 52.1264 99.7424 51.9446 99.9773C51.7666 100.208 51.509 100.415 51.1719 100.597C50.8385 100.775 50.3878 100.864 49.8196 100.864C49.1151 100.864 48.4825 100.697 47.9219 100.364C47.3651 100.03 46.9238 99.5455 46.598 98.9091C46.276 98.2727 46.1151 97.5 46.1151 96.5909C46.1151 95.697 46.2723 94.9186 46.5866 94.2557C46.901 93.589 47.3385 93.0739 47.8991 92.7102C48.4598 92.3428 49.1075 92.1591 49.8423 92.1591C50.4105 92.1591 50.8613 92.2538 51.1946 92.4432C51.5317 92.6288 51.7893 92.8409 51.9673 93.0795C52.1491 93.3144 52.2893 93.5076 52.3878 93.6591H52.5241V92.2727H53.8196V101.25C53.8196 102 53.6491 102.61 53.3082 103.08C52.9711 103.553 52.5166 103.9 51.9446 104.119C51.3764 104.343 50.7438 104.455 50.0469 104.455ZM50.0014 99.6591C50.5393 99.6591 50.9938 99.536 51.3651 99.2898C51.7363 99.0436 52.0185 98.6894 52.2116 98.2273C52.4048 97.7652 52.5014 97.2121 52.5014 96.5682C52.5014 95.9394 52.4067 95.3845 52.2173 94.9034C52.0279 94.4223 51.7476 94.0455 51.3764 93.7727C51.0052 93.5 50.5469 93.3636 50.0014 93.3636C49.4332 93.3636 48.9598 93.5076 48.581 93.7955C48.206 94.0833 47.9238 94.4697 47.7344 94.9545C47.5488 95.4394 47.456 95.9773 47.456 96.5682C47.456 97.1742 47.5507 97.7102 47.7401 98.1761C47.9332 98.6383 48.2173 99.0019 48.5923 99.267C48.9711 99.5284 49.4408 99.6591 50.0014 99.6591ZM57.6151 89.3636V101H56.2741V89.3636H57.6151ZM63.7301 101.182C62.8892 101.182 62.1638 100.996 61.554 100.625C60.9479 100.25 60.4801 99.7273 60.1506 99.0568C59.8248 98.3826 59.6619 97.5985 59.6619 96.7045C59.6619 95.8106 59.8248 95.0227 60.1506 94.3409C60.4801 93.6553 60.9384 93.1212 61.5256 92.7386C62.1165 92.3523 62.8059 92.1591 63.5938 92.1591C64.0483 92.1591 64.4972 92.2348 64.9403 92.3864C65.3835 92.5379 65.7869 92.7841 66.1506 93.125C66.5142 93.4621 66.804 93.9091 67.0199 94.4659C67.2358 95.0227 67.3438 95.7083 67.3438 96.5227V97.0909H60.6165V95.9318H65.9801C65.9801 95.4394 65.8816 95 65.6847 94.6136C65.4915 94.2273 65.215 93.9223 64.8551 93.6989C64.4991 93.4754 64.0786 93.3636 63.5938 93.3636C63.0597 93.3636 62.5975 93.4962 62.2074 93.7614C61.821 94.0227 61.5237 94.3636 61.3153 94.7841C61.107 95.2045 61.0028 95.6553 61.0028 96.1364V96.9091C61.0028 97.5682 61.1165 98.1269 61.3438 98.5852C61.5748 99.0398 61.8949 99.3864 62.304 99.625C62.7131 99.8598 63.1884 99.9773 63.7301 99.9773C64.0824 99.9773 64.4006 99.928 64.6847 99.8295C64.9725 99.7273 65.2206 99.5758 65.429 99.375C65.6373 99.1705 65.7983 98.9167 65.9119 98.6136L67.2074 98.9773C67.071 99.4167 66.8419 99.803 66.5199 100.136C66.1979 100.466 65.8002 100.723 65.3267 100.909C64.8532 101.091 64.321 101.182 63.7301 101.182ZM77.679 92.2727V93.4091H73.1562V92.2727H77.679ZM74.4744 90.1818H75.8153V98.5C75.8153 98.8788 75.8703 99.1629 75.9801 99.3523C76.0938 99.5379 76.2377 99.6629 76.4119 99.7273C76.59 99.7879 76.7775 99.8182 76.9744 99.8182C77.1222 99.8182 77.2434 99.8106 77.3381 99.7955C77.4328 99.7765 77.5085 99.7614 77.5653 99.75L77.8381 100.955C77.7472 100.989 77.6203 101.023 77.4574 101.057C77.2945 101.095 77.0881 101.114 76.8381 101.114C76.4593 101.114 76.0881 101.032 75.7244 100.869C75.3646 100.706 75.0653 100.458 74.8267 100.125C74.5919 99.7917 74.4744 99.3712 74.4744 98.8636V90.1818ZM81.2244 95.75V101H79.8835V89.3636H81.2244V93.6364H81.3381C81.5426 93.1856 81.8494 92.8277 82.2585 92.5625C82.6714 92.2936 83.2206 92.1591 83.9062 92.1591C84.5009 92.1591 85.0218 92.2784 85.4688 92.517C85.9157 92.7519 86.2623 93.1136 86.5085 93.6023C86.7585 94.0871 86.8835 94.7045 86.8835 95.4545V101H85.5426V95.5455C85.5426 94.8523 85.3627 94.3163 85.0028 93.9375C84.6468 93.5549 84.1525 93.3636 83.5199 93.3636C83.0805 93.3636 82.6866 93.4564 82.3381 93.642C81.9934 93.8277 81.7206 94.0985 81.5199 94.4545C81.3229 94.8106 81.2244 95.2424 81.2244 95.75ZM92.9957 101.182C92.1548 101.182 91.4295 100.996 90.8196 100.625C90.2135 100.25 89.7457 99.7273 89.4162 99.0568C89.0904 98.3826 88.9276 97.5985 88.9276 96.7045C88.9276 95.8106 89.0904 95.0227 89.4162 94.3409C89.7457 93.6553 90.2041 93.1212 90.7912 92.7386C91.3821 92.3523 92.0715 92.1591 92.8594 92.1591C93.3139 92.1591 93.7628 92.2348 94.206 92.3864C94.6491 92.5379 95.0526 92.7841 95.4162 93.125C95.7798 93.4621 96.0696 93.9091 96.2855 94.4659C96.5014 95.0227 96.6094 95.7083 96.6094 96.5227V97.0909H89.8821V95.9318H95.2457C95.2457 95.4394 95.1473 95 94.9503 94.6136C94.7571 94.2273 94.4806 93.9223 94.1207 93.6989C93.7647 93.4754 93.3442 93.3636 92.8594 93.3636C92.3253 93.3636 91.8632 93.4962 91.473 93.7614C91.0866 94.0227 90.7893 94.3636 90.581 94.7841C90.3726 95.2045 90.2685 95.6553 90.2685 96.1364V96.9091C90.2685 97.5682 90.3821 98.1269 90.6094 98.5852C90.8404 99.0398 91.1605 99.3864 91.5696 99.625C91.9787 99.8598 92.4541 99.9773 92.9957 99.9773C93.348 99.9773 93.6662 99.928 93.9503 99.8295C94.2382 99.7273 94.4863 99.5758 94.6946 99.375C94.9029 99.1705 95.0639 98.9167 95.1776 98.6136L96.473 98.9773C96.3366 99.4167 96.1075 99.803 95.7855 100.136C95.4635 100.466 95.0658 100.723 94.5923 100.909C94.1188 101.091 93.5866 101.182 92.9957 101.182ZM112.558 89.3636V101H111.195L104.854 91.8636H104.74V101H103.331V89.3636H104.695L111.058 98.5227H111.172V89.3636H112.558ZM115.378 101V89.3636H122.355V90.6136H116.787V94.5455H121.832V95.7955H116.787V101H115.378ZM134.132 93H132.723C132.64 92.5947 132.494 92.2386 132.286 91.9318C132.081 91.625 131.831 91.3674 131.536 91.1591C131.244 90.947 130.92 90.7879 130.564 90.6818C130.208 90.5758 129.837 90.5227 129.45 90.5227C128.746 90.5227 128.107 90.7008 127.536 91.0568C126.967 91.4129 126.515 91.9375 126.178 92.6307C125.844 93.3239 125.678 94.1742 125.678 95.1818C125.678 96.1894 125.844 97.0398 126.178 97.733C126.515 98.4261 126.967 98.9508 127.536 99.3068C128.107 99.6629 128.746 99.8409 129.45 99.8409C129.837 99.8409 130.208 99.7879 130.564 99.6818C130.92 99.5758 131.244 99.4186 131.536 99.2102C131.831 98.9981 132.081 98.7386 132.286 98.4318C132.494 98.1212 132.64 97.7652 132.723 97.3636H134.132C134.026 97.9583 133.833 98.4905 133.553 98.9602C133.272 99.4299 132.924 99.8295 132.507 100.159C132.09 100.485 131.623 100.733 131.104 100.903C130.589 101.074 130.037 101.159 129.45 101.159C128.458 101.159 127.575 100.917 126.803 100.432C126.03 99.947 125.422 99.2576 124.979 98.3636C124.536 97.4697 124.314 96.4091 124.314 95.1818C124.314 93.9545 124.536 92.8939 124.979 92C125.422 91.1061 126.03 90.4167 126.803 89.9318C127.575 89.447 128.458 89.2045 129.45 89.2045C130.037 89.2045 130.589 89.2898 131.104 89.4602C131.623 89.6307 132.09 89.8807 132.507 90.2102C132.924 90.536 133.272 90.9337 133.553 91.4034C133.833 91.8693 134.026 92.4015 134.132 93ZM146.909 94.2273L145.705 94.5682C145.629 94.3674 145.517 94.1723 145.369 93.983C145.225 93.7898 145.028 93.6307 144.778 93.5057C144.528 93.3807 144.208 93.3182 143.818 93.3182C143.284 93.3182 142.839 93.4413 142.483 93.6875C142.131 93.9299 141.955 94.2386 141.955 94.6136C141.955 94.947 142.076 95.2102 142.318 95.4034C142.561 95.5966 142.939 95.7576 143.455 95.8864L144.75 96.2045C145.53 96.3939 146.112 96.6837 146.494 97.0739C146.877 97.4602 147.068 97.9583 147.068 98.5682C147.068 99.0682 146.924 99.5152 146.636 99.9091C146.352 100.303 145.955 100.614 145.443 100.841C144.932 101.068 144.337 101.182 143.659 101.182C142.769 101.182 142.032 100.989 141.449 100.602C140.866 100.216 140.496 99.6515 140.341 98.9091L141.614 98.5909C141.735 99.0606 141.964 99.4129 142.301 99.6477C142.642 99.8826 143.087 100 143.636 100C144.261 100 144.758 99.8674 145.125 99.6023C145.496 99.3333 145.682 99.0114 145.682 98.6364C145.682 98.3333 145.576 98.0795 145.364 97.875C145.152 97.6667 144.826 97.5114 144.386 97.4091L142.932 97.0682C142.133 96.8788 141.545 96.5852 141.17 96.1875C140.799 95.786 140.614 95.2841 140.614 94.6818C140.614 94.1894 140.752 93.7538 141.028 93.375C141.309 92.9962 141.689 92.6989 142.17 92.483C142.655 92.267 143.205 92.1591 143.818 92.1591C144.682 92.1591 145.36 92.3485 145.852 92.7273C146.348 93.1061 146.701 93.6061 146.909 94.2273ZM151.064 101L148.405 92.2727H149.814L151.7 98.9545H151.791L153.655 92.2727H155.087L156.928 98.9318H157.018L158.905 92.2727H160.314L157.655 101H156.337L154.428 94.2955H154.291L152.382 101H151.064ZM162.087 101V92.2727H163.428V101H162.087ZM162.768 90.8182C162.507 90.8182 162.282 90.7292 162.092 90.5511C161.907 90.3731 161.814 90.1591 161.814 89.9091C161.814 89.6591 161.907 89.4451 162.092 89.267C162.282 89.089 162.507 89 162.768 89C163.03 89 163.253 89.089 163.439 89.267C163.628 89.4451 163.723 89.6591 163.723 89.9091C163.723 90.1591 163.628 90.3731 163.439 90.5511C163.253 90.7292 163.03 90.8182 162.768 90.8182ZM169.679 92.2727V93.4091H165.156V92.2727H169.679ZM166.474 90.1818H167.815V98.5C167.815 98.8788 167.87 99.1629 167.98 99.3523C168.094 99.5379 168.238 99.6629 168.412 99.7273C168.59 99.7879 168.777 99.8182 168.974 99.8182C169.122 99.8182 169.243 99.8106 169.338 99.7955C169.433 99.7765 169.509 99.7614 169.565 99.75L169.838 100.955C169.747 100.989 169.62 101.023 169.457 101.057C169.295 101.095 169.088 101.114 168.838 101.114C168.459 101.114 168.088 101.032 167.724 100.869C167.365 100.706 167.065 100.458 166.827 100.125C166.592 99.7917 166.474 99.3712 166.474 98.8636V90.1818ZM175.148 101.182C174.33 101.182 173.625 100.989 173.034 100.602C172.443 100.216 171.989 99.6837 171.67 99.0057C171.352 98.3277 171.193 97.553 171.193 96.6818C171.193 95.7955 171.356 95.0133 171.682 94.3352C172.011 93.6534 172.47 93.1212 173.057 92.7386C173.648 92.3523 174.337 92.1591 175.125 92.1591C175.739 92.1591 176.292 92.2727 176.784 92.5C177.277 92.7273 177.68 93.0455 177.994 93.4545C178.309 93.8636 178.504 94.3409 178.58 94.8864H177.239C177.136 94.4886 176.909 94.1364 176.557 93.8295C176.208 93.5189 175.739 93.3636 175.148 93.3636C174.625 93.3636 174.167 93.5 173.773 93.7727C173.383 94.0417 173.078 94.4223 172.858 94.9148C172.642 95.4034 172.534 95.9773 172.534 96.6364C172.534 97.3106 172.64 97.8977 172.852 98.3977C173.068 98.8977 173.371 99.286 173.761 99.5625C174.155 99.839 174.617 99.9773 175.148 99.9773C175.496 99.9773 175.812 99.9167 176.097 99.7955C176.381 99.6742 176.621 99.5 176.818 99.2727C177.015 99.0455 177.155 98.7727 177.239 98.4545H178.58C178.504 98.9697 178.316 99.4337 178.017 99.8466C177.722 100.256 177.33 100.581 176.841 100.824C176.356 101.062 175.792 101.182 175.148 101.182ZM181.881 95.75V101H180.54V89.3636H181.881V93.6364H181.994C182.199 93.1856 182.506 92.8277 182.915 92.5625C183.328 92.2936 183.877 92.1591 184.562 92.1591C185.157 92.1591 185.678 92.2784 186.125 92.517C186.572 92.7519 186.919 93.1136 187.165 93.6023C187.415 94.0871 187.54 94.7045 187.54 95.4545V101H186.199V95.5455C186.199 94.8523 186.019 94.3163 185.659 93.9375C185.303 93.5549 184.809 93.3636 184.176 93.3636C183.737 93.3636 183.343 93.4564 182.994 93.642C182.65 93.8277 182.377 94.0985 182.176 94.4545C181.979 94.8106 181.881 95.2424 181.881 95.75ZM198.288 92.2727V93.4091H193.766V92.2727H198.288ZM195.084 90.1818H196.425V98.5C196.425 98.8788 196.48 99.1629 196.589 99.3523C196.703 99.5379 196.847 99.6629 197.021 99.7273C197.199 99.7879 197.387 99.8182 197.584 99.8182C197.732 99.8182 197.853 99.8106 197.947 99.7955C198.042 99.7765 198.118 99.7614 198.175 99.75L198.447 100.955C198.357 100.989 198.23 101.023 198.067 101.057C197.904 101.095 197.697 101.114 197.447 101.114C197.069 101.114 196.697 101.032 196.334 100.869C195.974 100.706 195.675 100.458 195.436 100.125C195.201 99.7917 195.084 99.3712 195.084 98.8636V90.1818ZM203.757 101.182C202.969 101.182 202.278 100.994 201.683 100.619C201.092 100.244 200.63 99.7197 200.297 99.0455C199.967 98.3712 199.803 97.5833 199.803 96.6818C199.803 95.7727 199.967 94.9792 200.297 94.3011C200.63 93.6231 201.092 93.0966 201.683 92.7216C202.278 92.3466 202.969 92.1591 203.757 92.1591C204.545 92.1591 205.234 92.3466 205.825 92.7216C206.42 93.0966 206.882 93.6231 207.212 94.3011C207.545 94.9792 207.712 95.7727 207.712 96.6818C207.712 97.5833 207.545 98.3712 207.212 99.0455C206.882 99.7197 206.42 100.244 205.825 100.619C205.234 100.994 204.545 101.182 203.757 101.182ZM203.757 99.9773C204.356 99.9773 204.848 99.8239 205.234 99.517C205.621 99.2102 205.907 98.8068 206.092 98.3068C206.278 97.8068 206.371 97.2652 206.371 96.6818C206.371 96.0985 206.278 95.5549 206.092 95.0511C205.907 94.5473 205.621 94.1402 205.234 93.8295C204.848 93.5189 204.356 93.3636 203.757 93.3636C203.159 93.3636 202.666 93.5189 202.28 93.8295C201.893 94.1402 201.607 94.5473 201.422 95.0511C201.236 95.5549 201.143 96.0985 201.143 96.6818C201.143 97.2652 201.236 97.8068 201.422 98.3068C201.607 98.8068 201.893 99.2102 202.28 99.517C202.666 99.8239 203.159 99.9773 203.757 99.9773ZM215.418 89.3636V93.3636H214.168V89.3636H215.418ZM218.327 89.3636V93.3636H217.077V89.3636H218.327ZM230.712 95.1818C230.712 96.4091 230.49 97.4697 230.047 98.3636C229.604 99.2576 228.996 99.947 228.223 100.432C227.45 100.917 226.568 101.159 225.575 101.159C224.583 101.159 223.7 100.917 222.928 100.432C222.155 99.947 221.547 99.2576 221.104 98.3636C220.661 97.4697 220.439 96.4091 220.439 95.1818C220.439 93.9545 220.661 92.8939 221.104 92C221.547 91.1061 222.155 90.4167 222.928 89.9318C223.7 89.447 224.583 89.2045 225.575 89.2045C226.568 89.2045 227.45 89.447 228.223 89.9318C228.996 90.4167 229.604 91.1061 230.047 92C230.49 92.8939 230.712 93.9545 230.712 95.1818ZM229.348 95.1818C229.348 94.1742 229.179 93.3239 228.842 92.6307C228.509 91.9375 228.056 91.4129 227.484 91.0568C226.916 90.7008 226.28 90.5227 225.575 90.5227C224.871 90.5227 224.232 90.7008 223.661 91.0568C223.092 91.4129 222.64 91.9375 222.303 92.6307C221.969 93.3239 221.803 94.1742 221.803 95.1818C221.803 96.1894 221.969 97.0398 222.303 97.733C222.64 98.4261 223.092 98.9508 223.661 99.3068C224.232 99.6629 224.871 99.8409 225.575 99.8409C226.28 99.8409 226.916 99.6629 227.484 99.3068C228.056 98.9508 228.509 98.4261 228.842 97.733C229.179 97.0398 229.348 96.1894 229.348 95.1818ZM234.24 95.75V101H232.899V92.2727H234.195V93.6364H234.308C234.513 93.1932 234.823 92.8371 235.24 92.5682C235.657 92.2955 236.195 92.1591 236.854 92.1591C237.445 92.1591 237.962 92.2803 238.405 92.5227C238.848 92.7614 239.193 93.125 239.439 93.6136C239.685 94.0985 239.808 94.7121 239.808 95.4545V101H238.467V95.5455C238.467 94.8598 238.289 94.3258 237.933 93.9432C237.577 93.5568 237.089 93.3636 236.467 93.3636C236.039 93.3636 235.657 93.4564 235.32 93.642C234.986 93.8277 234.723 94.0985 234.53 94.4545C234.337 94.8106 234.24 95.2424 234.24 95.75ZM243.418 89.3636V93.3636H242.168V89.3636H243.418ZM246.327 89.3636V93.3636H245.077V89.3636H246.327ZM248.376 101.091C248.096 101.091 247.856 100.991 247.655 100.79C247.454 100.589 247.354 100.348 247.354 100.068C247.354 99.7879 247.454 99.5473 247.655 99.3466C247.856 99.1458 248.096 99.0455 248.376 99.0455C248.657 99.0455 248.897 99.1458 249.098 99.3466C249.299 99.5473 249.399 99.7879 249.399 100.068C249.399 100.254 249.352 100.424 249.257 100.58C249.166 100.735 249.043 100.86 248.888 100.955C248.736 101.045 248.566 101.091 248.376 101.091Z" fill="#5D5D5D"/>
<defs>
<filter id="filter0_d_1161_6059" x="329.621" y="0.405334" width="58.7573" height="35.7573" filterUnits="userSpaceOnUse" color-interpolation-filters="sRGB">
<feFlood flood-opacity="0" result="BackgroundImageFix"/>
<feColorMatrix in="SourceAlpha" type="matrix" values="0 0 0 0 0 0 0 0 0 0 0 0 0 0 0 0 0 0 127 0" result="hardAlpha"/>
<feMorphology radius="3.18933" operator="erode" in="SourceAlpha" result="effect1_dropShadow_1161_6059"/>
<feOffset dy="4.784"/>
<feGaussianBlur stdDeviation="4.784"/>
<feComposite in2="hardAlpha" operator="out"/>
<feColorMatrix type="matrix" values="0 0 0 0 0.152941 0 0 0 0 0.298039 0 0 0 0 0.466667 0 0 0 0.16 0"/>
<feBlend mode="normal" in2="BackgroundImageFix" result="effect1_dropShadow_1161_6059"/>
<feBlend mode="normal" in="SourceGraphic" in2="effect1_dropShadow_1161_6059" result="shape"/>
</filter>
</defs>
</svg>
